<?xml version="1.0" standalone="no"?><!DOCTYPE svg PUBLIC "-//W3C//DTD SVG 1.1//EN" "http://www.w3.org/Graphics/SVG/1.1/DTD/svg11.dtd"><svg class="icon" width="200px" height="150.04px" viewBox="0 0 1365 1024" version="1.1" xmlns="http://www.w3.org/2000/svg"><path d="M93.066909 1024h217.156121V496.620848L0 263.953576v666.979515c0 51.497023 41.724998 93.066909 93.066909 93.066909" fill="#4285F4" /><path d="M1054.758303 1024h217.156121c51.497023 0 93.066909-41.724998 93.06691-93.066909V263.953576l-310.223031 232.667272" fill="#34A853" /><path d="M1054.758303 93.330909v403.289939l310.223031-232.667272v-124.089213c0-115.092744-131.379453-180.704915-223.360582-111.68029" fill="#FBBC04" /><path d="M310.22303 496.620848V93.330909l372.267637 279.200727 372.267636-279.200727v403.289939L682.490667 775.821576" fill="#EA4335" /><path d="M0 139.864363v124.089213l310.22303 232.667272V93.330909l-86.862448-65.146836C131.224342-40.840552 0 24.771619 0 139.864363" fill="#C5221F" /></svg>